<svg width="64" height="64" viewBox="0 0 64 64" xmlns="http://www.w3.org/2000/svg"><title>smartphone-hidden</title><path d="M16 19.5L4 7.5 7.5 4 60 56.5 56.5 60 48 51.5V60H16V19.5zM44.5 48L18 21.5V48h26.5zm-19-32L16 6.5V4l32 .137V38.5l-2-2V16H25.5zM32 56.52a2.28 2.28 0 0 0 2.286-2.27A2.276 2.276 0 0 0 32 51.979a2.278 2.278 0 0 0-2.286 2.27A2.28 2.28 0 0 0 32 56.522zM26.286 8.967c-.631 0-1.143.506-1.143 1.136a1.14 1.14 0 0 0 1.143 1.135h11.428a1.14 1.14 0 0 0 1.143-1.135c0-.63-.512-1.136-1.143-1.136H26.286z" fill="#FFF" fill-rule="evenodd"/></svg>