<svg height="64" viewBox="0 0 64 64" width="64" xmlns="http://www.w3.org/2000/svg"><path d="m32 41.333c-5.147 0-9.333-4.188-9.333-9.333s4.186-9.333 9.333-9.333 9.333 4.188 9.333 9.333-4.186 9.333-9.333 9.333m20.172-14c-.467-1.843-1.06-3.89-1.816-5.441l4.742-4.741a1.166 1.166 0 0 0 0-1.65l-6.601-6.596a1.16 1.16 0 0 0 -1.65 0l-4.741 4.739c-1.554-.756-3.598-1.349-5.44-1.813v-6.664a1.166 1.166 0 0 0 -1.166-1.167h-7c-.644 0-1.167.523-1.167 1.167v6.664c-1.843.464-3.89 1.057-5.439 1.813l-4.743-4.74a1.16 1.16 0 0 0 -1.65 0l-6.601 6.598a1.167 1.167 0 0 0 0 1.65l4.744 4.743c-.752 1.547-1.349 3.594-1.816 5.44h-6.661a1.164 1.164 0 0 0 -1.167 1.165v7c0 .644.523 1.167 1.167 1.167h6.661c.467 1.845 1.064 3.892 1.816 5.441l-4.744 4.744a1.158 1.158 0 0 0 0 1.647l6.601 6.599c.439.438 1.213.438 1.65 0l4.743-4.742c1.545.754 3.594 1.347 5.44 1.818v6.66c0 .643.522 1.166 1.166 1.166h7c.644 0 1.167-.523 1.167-1.167v-6.659c1.843-.471 3.892-1.064 5.439-1.818l4.743 4.742a1.163 1.163 0 0 0 1.65 0l6.599-6.599a1.16 1.16 0 0 0 0-1.647l-4.742-4.744c.754-1.55 1.349-3.596 1.816-5.441h6.661c.644 0 1.167-.523 1.167-1.167v-7c0-.644-.523-1.167-1.167-1.167z" fill="#fff" fill-rule="evenodd"/></svg>