<svg width="64" height="64" viewBox="0 0 64 64" xmlns="http://www.w3.org/2000/svg"><title>style</title><g fill="#FFF" fill-rule="evenodd"><path d="M29 9l23 23-8.766.312L23 52 4 33s12.816-12.535 20.096-19.488a601.676 601.676 0 0 1 1.8-1.711C27.748 10.05 28.95 8.95 29 9zM16 29.42l23.335-2.122-10.607-10.607L16 29.42zM52.5 36l-1.068 1.522S45 47.532 45 50.987C45 54.854 48.365 58 52.5 58s7.5-3.146 7.5-7.013c0-3.455-5.773-12.45-6.432-13.465L52.5 36z"/><path d="M14 10.092L18.388 6l6.716 7.202-4.388 4.092z"/></g></svg>