<svg width="64" height="64" viewBox="0 0 64 64" xmlns="http://www.w3.org/2000/svg"><title>re-engagement</title><path d="M32 45.96l-1.885-1.72C23.42 38.154 19 34.14 19 29.213c0-4.014 3.146-7.168 7.15-7.168 2.262 0 4.433 1.056 5.85 2.724 1.417-1.668 3.588-2.724 5.85-2.724 4.004 0 7.15 3.154 7.15 7.168 0 4.927-4.42 8.94-11.115 15.04L32 45.96zM29.123 9.684c-4.098.507-7.832 2.14-10.948 4.56l-3.986-4.025C18.344 6.814 23.481 4.563 29.123 4v5.684zm-14.905 8.527c-2.414 3.124-4.043 6.866-4.548 10.975H4c.561-5.656 2.807-10.806 6.204-14.97l4.014 3.995zM9.67 34.814a22.17 22.17 0 0 0 4.548 10.947l-4.014 4.024C6.807 45.62 4.56 40.47 4 34.815h5.67zm4.52 18.967l3.985-4.024c3.116 2.42 6.85 4.052 10.948 4.559V60a27.977 27.977 0 0 1-14.934-6.22zM60 32c0 14.52-11.004 26.509-25.123 28v-5.684C45.881 52.852 54.386 43.397 54.386 32c0-11.397-8.505-20.852-19.509-22.316V4C48.997 5.491 60 17.48 60 32z" fill="#FFF"/></svg>