<svg width="64" height="64" viewBox="0 0 64 64" xmlns="http://www.w3.org/2000/svg"><title>opt-out</title><g fill="#FFF" fill-rule="evenodd"><path d="M32.685 13C22.38 13 14 21.382 14 31.688c0 4.256 1.445 8.172 3.852 11.312L44 16.847C40.851 14.445 36.94 13 32.685 13"/><path d="M32 55.13C19.247 55.13 8.87 44.753 8.87 32 8.87 19.247 19.247 8.87 32 8.87c12.753 0 23.13 10.377 23.13 23.13 0 12.753-10.377 23.13-23.13 23.13M32 4C16.534 4 4 16.534 4 32s12.534 28 28 28 28-12.534 28-28S47.466 4 32 4"/><path d="M46.153 21L20 47.148C23.149 49.55 27.06 51 31.315 51 41.62 51 50 42.62 50 32.315 50 28.06 48.56 24.15 46.153 21"/></g></svg>