<svg width="64" height="64" viewBox="0 0 64 64" xmlns="http://www.w3.org/2000/svg"><title>broken-image</title><g fill="#FFF" fill-rule="evenodd"><path d="M52.244 22.525V4.5H3.756v45.182h17.622A21.954 21.954 0 0 1 20 41.968H9.266l9.367-12.503 3.107 3.945C25.086 25.528 32.898 20 42 20c3.699 0 7.184.913 10.244 2.525z"/><path d="M41.5 23C31.325 23 23 31.325 23 41.5S31.325 60 41.5 60 60 51.675 60 41.5 51.675 23 41.5 23zm9.53 25.41l-2.62 2.62-6.91-6.91-6.91 6.91-2.62-2.62 6.91-6.91-6.91-6.91 2.62-2.62 6.91 6.91 6.91-6.91 2.62 2.62-6.91 6.91 6.91 6.91z"/></g></svg>