<svg width="75" height="75" viewBox="0 0 75 75" xmlns="http://www.w3.org/2000/svg"><title>Group 15</title><g fill="none" fill-rule="evenodd"><circle fill="#ADD8EB" cx="37.5" cy="37.5" r="37.5"/><path d="M37.532 18.064c-10.734 0-19.468 8.733-19.468 19.468S26.798 57 37.532 57C48.267 57 57 48.267 57 37.532s-8.733-19.468-19.468-19.468zm0 1.588c1.22 0 2.413.124 3.565.358L29.25 31.856V21.693a17.76 17.76 0 0 1 8.282-2.041zm-3.43 9.598h6.86l4.852 4.851v6.861l-4.851 4.851h-6.861l-4.852-4.85V34.1l4.852-4.85zm-6.44-6.618v16.742l-7.183-7.182-.009-.008a17.957 17.957 0 0 1 7.192-9.552zm-5.968 23.182a17.765 17.765 0 0 1-2.042-8.282c0-1.22.124-2.412.358-3.565l7.885 7.885v.001l3.961 3.96H21.698l-.004.001zm10.49 8.78a17.957 17.957 0 0 1-9.552-7.193h16.743l-7.183 7.184-.008.01zm5.348.818c-1.22 0-2.412-.124-3.564-.358l11.846-11.846V53.37a17.764 17.764 0 0 1-8.282 2.041zm9.87-2.98V35.688l7.183 7.184.01.007a17.957 17.957 0 0 1-7.193 9.551zM53.37 29.25a17.765 17.765 0 0 1 2.041 8.282c0 1.22-.124 2.412-.358 3.564l-7.883-7.883-.003-.003-3.96-3.96H53.37zm-17.682-1.588l7.184-7.183.007-.01a17.957 17.957 0 0 1 9.552 7.193H35.689z" fill-rule="nonzero" fill="#25455E"/></g></svg>