<svg width="75" height="75" viewBox="0 0 75 75" xmlns="http://www.w3.org/2000/svg"><title>Group 13</title><g fill="none" fill-rule="evenodd"><circle fill="#6764CB" cx="37.5" cy="37.5" r="37.5"/><path d="M53.761 27.484a.654.654 0 0 0-.568-.137c-1.46.332-5.656.992-7.475.056-.26-.134-.553-.298-.862-.475l.412-.504a.672.672 0 0 0-.127-.965l-4.62-3.334a.668.668 0 0 0-.502-.113.653.653 0 0 0-.43.285l-.553.836a54.249 54.249 0 0 1-.497-.349.66.66 0 0 0-.908.147l-3.96 5.333a.674.674 0 0 0 .14.94l.823.6-2.966 4.493c-1.923 2.93-2.508 4.512-3.073 6.042-.51 1.377-.988 2.678-2.53 4.949-1.622 2.39-3.4 3.457-3.419 3.468a.67.67 0 0 0-.063 1.11l5.28 4a.66.66 0 0 0 .55.115c2.698-.65 3.494-2.388 4.266-4.066l.138-.299c.307-.663.547-2.024.851-3.747.545-3.096 1.369-7.773 2.978-9.398.673-.68 1.633-1.742 2.826-3.119.6.443 1.152.852 1.593 1.181 1.627 1.216 2.265 5.355 2.375 6.847a.668.668 0 0 0 .368.55c.083.042.182.09.325.09.566 0 1.844-.744 5.76-5.603 3.945-4.894 4.102-8.257 4.107-8.397a.672.672 0 0 0-.239-.536zM40.31 23.609l3.49 2.518-.091.11a103.075 103.075 0 0 1-3.581-2.352l.182-.276zm-4.598 11.916c-1.902 1.922-2.736 6.654-3.344 10.108-.263 1.498-.511 2.912-.746 3.415l-.139.304c-.718 1.561-1.246 2.712-3.082 3.252l-4.295-3.253c.752-.59 1.93-1.663 3.046-3.311 1.633-2.404 2.141-3.781 2.68-5.237.54-1.46 1.095-2.968 2.935-5.77l2.937-4.448 1.232.902.215.157.077.056 1.175.863c-1.145 1.32-2.05 2.314-2.69 2.962zm13.156.055c-2.297 2.85-3.563 4.112-4.22 4.67-.237-1.815-.931-5.391-2.795-6.786-.558-.417-1.298-.964-2.083-1.543l-.005-.005c-1.33-.98-2.805-2.059-3.841-2.816-.003-.001-.006-.001-.007-.003l-.787-.574 3.175-4.275c1.015.707 3.292 2.272 5.203 3.43a26.906 26.906 0 0 0 1.612.917c1.99 1.024 5.665.552 7.407.245-.296 1.217-1.16 3.639-3.66 6.74z" fill-rule="nonzero" fill="#FFF"/></g></svg>