<svg width="75" height="75" viewBox="0 0 75 75" xmlns="http://www.w3.org/2000/svg"><title>Group 12</title><g fill="none" fill-rule="evenodd"><circle fill="#697C95" cx="37.5" cy="37.5" r="37.5"/><path d="M54.6 31.913v-6.675l-.002-.014a.802.802 0 0 0-.014-.138l-.007-.024a.777.777 0 0 0-.033-.107l-.018-.041a.735.735 0 0 0-.047-.086l-.022-.034a.765.765 0 0 0-.084-.102L44.2 14.482l-.002-.001-.01-.01a.752.752 0 0 0-.095-.077l-.037-.023a.888.888 0 0 0-.084-.045l-.042-.019a.79.79 0 0 0-.117-.036l-.018-.004a.804.804 0 0 0-.135-.014l-.017-.002H21.247a.78.78 0 0 0-.784.778v16.884H18v17.26h2.463v7.838c0 .43.35.777.784.777h32.569a.78.78 0 0 0 .783-.777v-7.839h2.38V31.913H54.6zm-10.173-14.99l7.51 7.538h-7.51v-7.538zm-22.396-1.116h20.828v9.431c0 .43.351.778.784.778h9.388v5.897h-31V15.807zm25.084 29.078h-1.823l-.122-3.132a90.769 90.769 0 0 1-.073-3.363h-.037c-.257 1.045-.6 2.21-.918 3.169l-1.004 3.192h-1.456l-.88-3.168a36.913 36.913 0 0 1-.747-3.193h-.025c-.049 1.105-.085 2.368-.147 3.387l-.146 3.108H38.01l.526-8.182h2.484l.808 2.732c.257.947.514 1.966.697 2.925h.037c.232-.947.514-2.027.783-2.938l.881-2.719h2.435l.453 8.182zm-16.812-6.628v-1.554h6.339v1.554H34.39v6.628h-1.872v-6.628h-2.215zm-8.418-1.554h1.872v3.144h3.072v-3.144h1.86v8.182h-1.86v-3.423h-3.072v3.423h-1.872v-8.182zm31.146 19.53h-31v-7.061h31v7.061zm1.278-11.348h-5.151v-8.182h1.872v6.628h3.28v1.554z" fill-rule="nonzero" fill="#FFF"/></g></svg>