<svg width="75" height="75" viewBox="0 0 75 75" xmlns="http://www.w3.org/2000/svg"><title>Group 14</title><g fill="none" fill-rule="evenodd"><circle fill="#319DCE" cx="37.5" cy="37.5" r="37.5"/><path d="M26.56 24C25.15 24 24 25.15 24 26.565v23.153a1.28 1.28 0 0 0 1.762 1.188c.15.061.312.094.478.094h26.284a1.28 1.28 0 0 0 1.222-.894l5.368-16.901a1.282 1.282 0 0 0-1.221-1.671H31.609c-.557 0-1.05.361-1.22.894L26.56 44.48V26.565h8.962v2.21a1.28 1.28 0 0 0 1.28 1.282h2.741a1.28 1.28 0 0 0 1.28-1.283 1.28 1.28 0 0 0-1.28-1.282h-1.46v-.927A2.564 2.564 0 0 0 35.522 24H26.56zm29.584 10.099L51.59 48.435h-23.6L32.548 34.1h23.597z" fill-rule="nonzero" fill="#25455E"/></g></svg>