<?xml version="1.0" encoding="UTF-8"?>
<svg width="158px" height="158px" viewBox="0 0 158 158" version="1.1" xmlns="http://www.w3.org/2000/svg" xmlns:xlink="http://www.w3.org/1999/xlink">
    <!-- Generator: Sketch 55 (78076) - https://sketchapp.com -->
    <title>logo</title>
    <desc>Created with Sketch.</desc>
    <g id="Page-1" stroke="none" stroke-width="1" fill="none" fill-rule="evenodd">
        <g id="Axiom-/-Brandwatch" transform="translate(-174.000000, -273.000000)">
            <g id="logo" transform="translate(174.002984, 273.450991)">
                <g id="Branding---Logo---LogoBox---White">
                    <rect id="Rectangle" fill="#FFFFFF" x="0" y="0" width="157.533565" height="157.533565" rx="25.7782198"></rect>
                    <g id="Logo" transform="translate(24.003632, 27.338740)">
                        <path d="M64.0994115,35.7934182 C64.9888846,31.6795254 69.0473976,29.0652139 73.1641295,29.9540736 C77.2808613,30.8429333 79.8969771,34.8983362 79.0075039,39.0122289 C78.1180308,43.1261217 74.0595179,45.7407443 69.942786,44.8518846 C65.8260541,43.9627138 63.2099384,39.9073109 64.0994115,35.7934182" id="Fill" fill="#FF8D00"></path>
                        <path d="M38.1146858,39.1616271 C39.4761369,32.8649413 45.6878161,28.8633616 51.9891588,30.2238738 C58.29019,31.584386 62.2945314,37.7917813 60.9330802,44.0884671 C59.5716291,50.3851528 53.3599498,54.3870437 47.0586072,53.0265315 C40.7575759,51.6660192 36.7532346,45.4583128 38.1146858,39.1616271" id="Fill" fill="#F66800"></path>
                        <path d="M59.1531066,54.7293651 C60.2966259,49.4400744 65.5145361,46.0787723 70.8074771,47.221503 C76.1004181,48.3642337 79.4643513,53.5785454 78.3205206,58.8678361 C77.1770013,64.1571268 71.9590911,67.51874 66.6661501,66.3756981 C61.3732091,65.2329674 58.0095873,60.0186558 59.1531066,54.7293651" id="Fill" fill="#FF546B"></path>
                        <path d="M88.2358576,45.5854661 C88.9802504,42.1432737 92.3759393,39.955814 95.8205072,40.6993823 C99.2650751,41.4432617 101.454044,44.8366088 100.709963,48.2788012 C99.9655702,51.7209935 96.5698813,53.9087644 93.1253134,53.1648849 C89.6807455,52.4210055 87.4914648,49.0276584 88.2358576,45.5854661" id="Fill" fill="#8EA534"></path>
                        <path d="M32.100048,62.9248878 C32.7354749,59.986393 35.6342793,58.1190721 38.5748021,58.7537497 C41.5153248,59.3887383 43.3839344,62.2855436 42.7485076,65.2240384 C42.113392,68.1625332 39.2145876,70.0301652 36.2740648,69.3951766 C33.333542,68.7601879 31.4646211,65.8633827 32.100048,62.9248878" id="Fill" fill="#F7BD00"></path>
                        <path d="M55.7349707,24.2240865 C56.3159146,21.537596 58.9662768,19.8301889 61.6546213,20.4107322 C64.3432772,20.9909644 66.0518626,23.6394987 65.4709186,26.3263003 C64.8899747,29.0127908 62.2396126,30.7201979 59.5509567,30.1396546 C56.8626122,29.5591113 55.1540268,26.910577 55.7349707,24.2240865" id="Fill" fill="#F7BD00"></path>
                        <path d="M26.2942823,2.63139179 C26.6392372,1.03629777 28.2127049,0.0223692724 29.8092111,0.367086294 C31.4054059,0.711803316 32.4197228,2.28449695 32.0750792,3.87959097 C31.7301243,5.47468498 30.1563453,6.48861348 28.5601505,6.14389646 C26.9639556,5.79917944 25.9493274,4.2264858 26.2942823,2.63139179" id="Fill" fill="#9C7CB7"></path>
                        <path d="M0.122571076,74.8400877 C0.449468791,73.3289951 1.94012237,72.3685787 3.4522578,72.6949398 C4.96470456,73.0216121 5.92578384,74.5112376 5.59888613,76.0226413 C5.27229974,77.5337339 3.78133483,78.4941504 2.2691994,78.1674781 C0.756752643,77.8411169 -0.204326638,76.3511803 0.122571076,74.8400877" id="Fill" fill="#969C9E"></path>
                        <path d="M54.0627799,84.4203586 C54.5167008,82.3215671 56.5870529,80.9874998 58.6876043,81.4411076 C60.7878442,81.8947153 62.1228322,83.9636397 61.6689114,86.0627424 C61.2149906,88.1615339 59.1446384,89.4956012 57.0440871,89.0419934 C54.9438471,88.5883857 53.6088591,86.5191502 54.0627799,84.4203586" id="Fill" fill="#008FB6"></path>
                        <path d="M21.4050133,41.9408925 C21.8589341,39.8421009 23.9292863,38.5080336 26.0298376,38.9616414 C28.1300776,39.4152492 29.4650656,41.4841735 29.0111448,43.5832762 C28.557224,45.6820677 26.4868718,47.0161351 24.3863205,46.5625273 C22.2860805,46.1089195 20.9510925,44.039684 21.4050133,41.9408925" id="Fill" fill="#5CC4E8"></path>
                        <path d="M48.642162,58.3860722 C49.0596571,56.4549725 50.9646925,55.2279292 52.8968136,55.6451364 C54.8292461,56.0623435 56.0574475,57.966065 55.6399524,59.8968537 C55.222146,61.8279535 53.317422,63.0553079 51.3849895,62.6377896 C49.452557,62.2205824 48.2246669,60.317172 48.642162,58.3860722" id="Fill" fill="#F66800"></path>
                        <path d="M84.2213668,14.874415 C84.6933449,12.6916221 86.8468225,11.3043538 89.0311219,11.7760064 C91.2154213,12.2476589 92.6036469,14.3996514 92.1316689,16.5824443 C91.6596908,18.7652373 89.5062132,20.1525056 87.3219138,19.680853 C85.1376144,19.2092005 83.7493888,17.057208 84.2213668,14.874415" id="Fill" fill="#5CC4E8"></path>
                        <path d="M84.9764072,70.5247782 C84.6899825,68.7436365 85.9026173,67.0679633 87.6849882,66.7817362 C89.4670478,66.4955091 91.1441887,67.7073076 91.4306134,69.4884493 C91.717038,71.2692798 90.5044032,72.9452641 88.7220323,73.2314912 C86.9396614,73.5177184 85.2628318,72.3059198 84.9764072,70.5247782" id="Fill" fill="#FF8D00"></path>
                    </g>
                </g>
            </g>
        </g>
    </g>
</svg>