<?xml version="1.0" encoding="UTF-8"?>
<svg width="337px" height="835px" viewBox="0 0 337 835" version="1.1" xmlns="http://www.w3.org/2000/svg" xmlns:xlink="http://www.w3.org/1999/xlink">
    <!-- Generator: Sketch 55 (78076) - https://sketchapp.com -->
    <title>flow</title>
    <desc>Created with Sketch.</desc>
    <defs>
        <linearGradient x1="50%" y1="0%" x2="50%" y2="100%" id="linearGradient-1">
            <stop stop-color="#697C95" offset="0%"></stop>
            <stop stop-color="#6764CB" offset="100%"></stop>
        </linearGradient>
        <linearGradient x1="50%" y1="0%" x2="50%" y2="100%" id="linearGradient-2">
            <stop stop-color="#319DCE" offset="0%"></stop>
            <stop stop-color="#ADD8EB" offset="100%"></stop>
        </linearGradient>
        <linearGradient x1="50%" y1="0%" x2="50%" y2="99.175%" id="linearGradient-3">
            <stop stop-color="#8E8CE4" offset="0%"></stop>
            <stop stop-color="#319DCE" offset="100%"></stop>
        </linearGradient>
        <linearGradient x1="50%" y1="0%" x2="50%" y2="97.483%" id="linearGradient-4">
            <stop stop-color="#ADD8EB" offset="0%"></stop>
            <stop stop-color="#84E5AE" offset="100%"></stop>
        </linearGradient>
    </defs>
    <g id="Page-1" stroke="none" stroke-width="1" fill="none" fill-rule="evenodd">
        <g id="flow" transform="translate(2.000000, 0.000000)">
            <circle id="Oval" fill="#697C95" fill-rule="nonzero" cx="164.5" cy="37.5" r="37.5"></circle>
            <path d="M180.806,38 L19.996,38 C8.954,38 0,46.95 0,58.002 L0,197.87 C0,208.917 8.958,217.872 20.005,217.872 L181.273,217.872" id="Path" stroke="url(#linearGradient-1)" stroke-width="3"></path>
            <path d="M180.806,398 L19.996,398 C8.954,398 0,406.95 0,418.002 L0,557.87 C0,568.917 8.958,577.872 20.005,577.872 L181.273,577.872" id="Path" stroke="url(#linearGradient-2)" stroke-width="3"></path>
            <path d="M332.806,218 L171.996,218 C160.954,218 152,226.95 152,238.002 L152,377.87 C152,388.917 160.958,397.872 172.005,397.872 L333.273,397.872" id="Path" stroke="url(#linearGradient-3)" stroke-width="3" transform="translate(242.636500, 307.936000) scale(-1, 1) translate(-242.636500, -307.936000) "></path>
            <path d="M332.806,578 L171.996,578 C160.954,578 152,586.95 152,598.002 L152,737.87 C152,748.917 160.958,757.872 172.005,757.872 L333.273,757.872" id="Path" stroke="url(#linearGradient-4)" stroke-width="3" transform="translate(242.636500, 667.936000) scale(-1, 1) translate(-242.636500, -667.936000) "></path>
            <circle id="Oval" fill="#6764CB" fill-rule="nonzero" cx="114.5" cy="217.5" r="37.5"></circle>
            <path d="M130.761,207.484 C130.603724,207.351595 130.393342,207.300851 130.193,207.347 C128.733,207.679 124.537,208.339 122.718,207.403 C122.458,207.269 122.165,207.105 121.856,206.928 L122.268,206.424 C122.383514,206.280866 122.43531,206.096641 122.41131,205.914282 C122.387311,205.731924 122.289613,205.567373 122.141,205.459 L117.521,202.125 C117.37547,202.02181 117.194709,201.981121 117.019,202.012 C116.842626,202.043957 116.687143,202.14701 116.589,202.297 L116.036,203.133 C115.869683,203.017595 115.704014,202.90126 115.539,202.784 C115.246405,202.579293 114.844061,202.64443 114.631,202.931 L110.671,208.264 C110.451233,208.562519 110.51378,208.982479 110.811,209.204 L111.634,209.804 L108.668,214.297 C106.745,217.227 106.16,218.809 105.595,220.339 C105.085,221.716 104.607,223.017 103.065,225.288 C101.443,227.678 99.665,228.745 99.646,228.756 C99.4542131,228.869805 99.3316216,229.071575 99.3189846,229.294228 C99.3063476,229.51688 99.4053216,229.731226 99.583,229.866 L104.863,233.866 C105.020046,233.984357 105.221689,234.026519 105.413,233.981 C108.111,233.331 108.907,231.593 109.679,229.915 L109.817,229.616 C110.124,228.953 110.364,227.592 110.668,225.869 C111.213,222.773 112.037,218.096 113.646,216.471 C114.319,215.791 115.279,214.729 116.472,213.352 C117.072,213.795 117.624,214.204 118.065,214.533 C119.692,215.749 120.33,219.888 120.44,221.38 C120.456858,221.615482 120.596761,221.824577 120.808,221.93 C120.891,221.972 120.99,222.02 121.133,222.02 C121.699,222.02 122.977,221.276 126.893,216.417 C130.838,211.523 130.995,208.16 131,208.02 C131.006682,207.814148 130.918596,207.616601 130.761,207.484 L130.761,207.484 Z M117.309,203.609 L120.799,206.127 L120.708,206.237 C119.498167,205.477895 118.304242,204.693725 117.127,203.885 L117.309,203.609 Z M112.711,215.525 C110.809,217.447 109.975,222.179 109.367,225.633 C109.104,227.131 108.856,228.545 108.621,229.048 L108.482,229.352 C107.764,230.913 107.236,232.064 105.4,232.604 L101.105,229.351 C101.857,228.761 103.035,227.688 104.151,226.04 C105.784,223.636 106.292,222.259 106.831,220.803 C107.371,219.343 107.926,217.835 109.766,215.033 L112.703,210.585 L113.935,211.487 L114.15,211.644 L114.227,211.7 L115.402,212.563 C114.257,213.883 113.352,214.877 112.712,215.525 L112.711,215.525 Z M125.867,215.58 C123.57,218.43 122.304,219.692 121.647,220.25 C121.41,218.435 120.716,214.859 118.852,213.464 C118.294,213.047 117.554,212.5 116.769,211.921 L116.764,211.916 C115.434,210.936 113.959,209.857 112.923,209.1 C112.92,209.099 112.917,209.099 112.916,209.097 L112.129,208.523 L115.304,204.248 C116.319,204.955 118.596,206.52 120.507,207.678 C121.033636,208.0021 121.571289,208.307948 122.119,208.595 C124.109,209.619 127.784,209.147 129.526,208.84 C129.23,210.057 128.366,212.479 125.866,215.58 L125.867,215.58 Z" id="Shape" fill="#FFFFFF" fill-rule="nonzero"></path>
            <circle id="Oval" fill="#7471D8" fill-rule="nonzero" cx="164.5" cy="217.5" r="37.5"></circle>
            <path d="M183.6,212.913 L183.6,206.238 L183.598,206.224 C183.597327,206.177682 183.592643,206.131509 183.584,206.086 L183.577,206.062 C183.568588,206.025586 183.557559,205.989827 183.544,205.955 L183.526,205.914 C183.512264,205.88432 183.496563,205.855589 183.479,205.828 L183.457,205.794 C183.431994,205.757641 183.403889,205.723514 183.373,205.692 L173.201,195.482 L173.199,195.481 L173.189,195.471 C173.159476,195.442797 173.127705,195.417045 173.094,195.394 L173.057,195.371 C173.029826,195.354507 173.001785,195.339486 172.973,195.326 L172.931,195.307 C172.89299,195.291992 172.853872,195.279956 172.814,195.271 L172.796,195.267 C172.751475,195.258537 172.706314,195.253853 172.661,195.253 L172.644,195.251 L150.247,195.251 C150.039785,195.249937 149.840664,195.331371 149.693577,195.477332 C149.54649,195.623293 149.463529,195.821783 149.463,196.029 L149.463,212.913 L147,212.913 L147,230.173 L149.463,230.173 L149.463,238.011 C149.463,238.441 149.813,238.788 150.247,238.788 L182.816,238.788 C183.022869,238.788797 183.221582,238.707382 183.368424,238.561666 C183.515265,238.41595 183.598206,238.217869 183.599,238.011 L183.599,230.172 L185.979,230.172 L185.979,212.913 L183.599,212.913 L183.6,212.913 Z M173.427,197.923 L180.937,205.461 L173.427,205.461 L173.427,197.923 Z M151.031,196.807 L171.859,196.807 L171.859,206.238 C171.859,206.668 172.21,207.016 172.643,207.016 L182.031,207.016 L182.031,212.913 L151.031,212.913 L151.031,196.807 Z M176.115,225.885 L174.292,225.885 L174.17,222.753 C174.124896,221.632547 174.100558,220.511355 174.097,219.39 L174.06,219.39 C173.803,220.435 173.46,221.6 173.142,222.559 L172.138,225.751 L170.682,225.751 L169.802,222.583 C169.505824,221.530258 169.256578,220.464873 169.055,219.39 L169.03,219.39 C168.981,220.495 168.945,221.758 168.883,222.777 L168.737,225.885 L167.011,225.885 L167.537,217.703 L170.021,217.703 L170.829,220.435 C171.086,221.382 171.343,222.401 171.526,223.36 L171.563,223.36 C171.795,222.413 172.077,221.333 172.346,220.422 L173.227,217.703 L175.662,217.703 L176.115,225.885 L176.115,225.885 Z M159.303,219.257 L159.303,217.703 L165.642,217.703 L165.642,219.257 L163.39,219.257 L163.39,225.885 L161.518,225.885 L161.518,219.257 L159.303,219.257 L159.303,219.257 Z M150.885,217.703 L152.757,217.703 L152.757,220.847 L155.829,220.847 L155.829,217.703 L157.689,217.703 L157.689,225.885 L155.829,225.885 L155.829,222.462 L152.757,222.462 L152.757,225.885 L150.885,225.885 L150.885,217.703 Z M182.031,237.233 L151.031,237.233 L151.031,230.172 L182.031,230.172 L182.031,237.233 Z M183.309,225.885 L178.158,225.885 L178.158,217.703 L180.03,217.703 L180.03,224.331 L183.31,224.331 L183.31,225.885 L183.309,225.885 Z" id="Shape" fill="#FFFFFF" fill-rule="nonzero"></path>
            <circle id="Oval" fill="#8E8CE5" fill-rule="nonzero" cx="218.5" cy="217.5" r="37.5"></circle>
            <g id="white-text" transform="translate(77.000000, 88.000000)" fill="#FFFFFF" font-family="Raleway-Regular, Raleway" font-size="16" font-weight="normal">
                <text id="Full-email-template-loaded" class="white-text">
                    <tspan x="0" y="15">Full email template loaded</tspan>
                </text>
            </g>
            <path d="M203.239,207.484 C203.396276,207.351595 203.606658,207.300851 203.807,207.347 C205.267,207.679 209.463,208.339 211.282,207.403 C211.542,207.269 211.835,207.105 212.144,206.928 L211.732,206.424 C211.616486,206.280866 211.56469,206.096641 211.58869,205.914282 C211.612689,205.731924 211.710387,205.567373 211.859,205.459 L216.479,202.125 C216.62453,202.02181 216.805291,201.981121 216.981,202.012 C217.157374,202.043957 217.312857,202.14701 217.411,202.297 L217.964,203.133 C218.268,202.921 218.452,202.791 218.461,202.784 C218.753595,202.579293 219.155939,202.64443 219.369,202.931 L223.329,208.264 C223.548767,208.562519 223.48622,208.982479 223.189,209.204 L222.366,209.804 L225.332,214.297 C227.255,217.227 227.84,218.809 228.405,220.339 C228.915,221.716 229.393,223.017 230.935,225.288 C232.557,227.678 234.335,228.745 234.354,228.756 C234.545787,228.869805 234.668378,229.071575 234.681015,229.294228 C234.693652,229.51688 234.594678,229.731226 234.417,229.866 L229.137,233.866 C228.979954,233.984357 228.778311,234.026519 228.587,233.981 C225.889,233.331 225.093,231.593 224.321,229.915 L224.183,229.616 C223.876,228.953 223.636,227.592 223.332,225.869 C222.787,222.773 221.963,218.096 220.354,216.471 C219.681,215.791 218.721,214.729 217.528,213.352 C216.928,213.795 216.376,214.204 215.935,214.533 C214.308,215.749 213.67,219.888 213.56,221.38 C213.543142,221.615482 213.403239,221.824577 213.192,221.93 C213.092892,221.986694 212.981153,222.017637 212.867,222.02 C212.301,222.02 211.023,221.276 207.107,216.417 C203.162,211.523 203.005,208.16 203,208.02 C202.993318,207.814148 203.081404,207.616601 203.239,207.484 L203.239,207.484 Z M216.691,203.609 L213.201,206.127 L213.292,206.237 C214.501833,205.477895 215.695758,204.693725 216.873,203.885 L216.691,203.609 L216.691,203.609 Z M221.289,215.525 C223.191,217.447 224.025,222.179 224.633,225.633 C224.896,227.131 225.144,228.545 225.379,229.048 L225.518,229.352 C226.236,230.913 226.764,232.064 228.6,232.604 L232.895,229.351 C232.143,228.761 230.965,227.688 229.849,226.04 C228.216,223.636 227.708,222.259 227.169,220.803 C226.629,219.343 226.074,217.835 224.234,215.033 L221.297,210.585 L220.065,211.487 L219.85,211.644 L219.773,211.7 L218.598,212.563 C219.743,213.883 220.648,214.877 221.288,215.525 L221.289,215.525 Z M208.133,215.58 C210.43,218.43 211.696,219.692 212.353,220.25 C212.59,218.435 213.284,214.859 215.148,213.464 C215.706,213.047 216.446,212.5 217.231,211.921 L217.236,211.916 C218.566,210.936 220.041,209.857 221.077,209.1 C221.08,209.099 221.083,209.099 221.084,209.097 L221.871,208.523 L218.696,204.248 C217.681,204.955 215.404,206.52 213.493,207.678 C213.491,207.678 213.49,207.678 213.489,207.68 C212.904,208.035 212.349,208.355 211.881,208.595 C209.891,209.619 206.216,209.147 204.474,208.84 C204.77,210.057 205.634,212.479 208.134,215.58 L208.133,215.58 Z" id="Shape" fill="#FFFFFF" fill-rule="nonzero"></path>
            <g id="white-text" transform="translate(35.000000, 275.000000)" fill="#FFFFFF" font-family="Raleway-Regular, Raleway" font-size="16" font-weight="normal">
                <text id="Email-chopped-into-smaller-chunks" class="white-text">
                    <tspan x="0.188" y="15">Email chopped into smaller chunks</tspan>
                </text>
                <text id="(-Dig-dig,-Chop-chop…)">
                    <tspan x="48.916" y="34">( Dig dig, Chop chop…)</tspan>
                </text>
            </g>
            <g id="Group" transform="translate(45.000000, 444.000000)" fill="#FFFFFF" font-family="Raleway-Regular, Raleway" font-size="16" font-weight="normal">
                <text id="Each-chunk-of-template-is-saved">
                    <tspan x="0.3" y="15">Each chunk of template is saved</tspan>
                </text>
                <text id="as-a-new-HTML-file">
                    <tspan x="50.036" y="34">as a new HTML file</tspan>
                </text>
            </g>
            <g id="Group" transform="translate(50.000000, 628.000000)" fill="#1D374C" font-family="Raleway-Regular, Raleway" font-size="16" font-weight="normal">
                <g id="Group-2" transform="translate(0.456000, 0.000000)">
                    <text id="Each-HTML-file-is-loaded-and-a">
                        <tspan x="0" y="15">Each HTML file is loaded and a</tspan>
                    </text>
                    <text id="screenshot-is-taken">
                        <tspan x="42.512" y="34">screenshot is taken</tspan>
                    </text>
                </g>
            </g>
            <g id="Group" transform="translate(35.000000, 797.000000)" fill="#1D374C" font-family="Raleway-Regular, Raleway" font-size="16" font-weight="normal">
                <g id="Group-3" transform="translate(0.300000, 0.000000)">
                    <text id="All-screenshots-and-HTML-files-are">
                        <tspan x="0" y="15">All screenshots and HTML files are</tspan>
                    </text>
                    <text id="zipped-up-ready-to-be-used">
                        <tspan x="26.048" y="34">zipped up ready to be used</tspan>
                    </text>
                </g>
            </g>
            <circle id="Oval" fill="#319DCE" fill-rule="nonzero" cx="164.5" cy="395.5" r="37.5"></circle>
            <circle id="Oval" fill="#ADD8EB" fill-rule="nonzero" cx="164.5" cy="579.5" r="37.5"></circle>
            <circle id="Oval" fill="#84E5AE" fill-rule="nonzero" cx="164.5" cy="757.5" r="37.5"></circle>
            <path d="M151.56,743 C150.15,743 149,744.15 149,745.565 L149,768.718 C148.99926,769.144391 149.210892,769.543155 149.564432,769.781523 C149.917971,770.019892 150.366995,770.066564 150.762,769.906 C150.912,769.967 151.074,770 151.24,770 L177.524,770 C178.082811,770.000693 178.577484,769.638797 178.746,769.106 L184.114,752.205 C184.238089,751.81533 184.168825,751.389839 183.927552,751.059645 C183.686279,750.729451 183.301951,750.534178 182.893,750.534 L156.609,750.534 C156.052,750.534 155.559,750.895 155.389,751.428 L151.561,763.48 L151.561,745.565 L160.523,745.565 L160.523,747.775 C160.522469,748.114823 160.657091,748.440911 160.897195,748.68139 C161.1373,748.921869 161.463176,749.057 161.803,749.057 L164.544,749.057 C164.883998,749.057001 165.210026,748.921732 165.450159,748.681037 C165.690292,748.440341 165.824797,748.113997 165.824,747.774 C165.824531,747.434177 165.689909,747.108089 165.449805,746.86761 C165.2097,746.627131 164.883824,746.492 164.544,746.492 L163.084,746.492 L163.084,745.565 C163.084553,744.149722 161.938277,743.001656 160.523,743 L151.561,743 L151.56,743 Z M181.144,753.099 L176.59,767.435 L152.99,767.435 L157.547,753.099 L181.144,753.099 Z M153.56,382 C152.15,382 151,383.15 151,384.565 L151,407.718 C150.99926,408.144391 151.210892,408.543155 151.564432,408.781523 C151.917971,409.019892 152.366995,409.066564 152.762,408.906 C152.912,408.967 153.074,409 153.24,409 L179.524,409 C180.082811,409.000693 180.577484,408.638797 180.746,408.106 L186.114,391.205 C186.238089,390.81533 186.168825,390.389839 185.927552,390.059645 C185.686279,389.729451 185.301951,389.534178 184.893,389.534 L158.609,389.534 C158.052,389.534 157.559,389.895 157.389,390.428 L153.561,402.48 L153.561,384.565 L162.523,384.565 L162.523,386.775 C162.522469,387.114823 162.657091,387.440911 162.897195,387.68139 C163.1373,387.921869 163.463176,388.057 163.803,388.057 L166.544,388.057 C166.883998,388.057001 167.210026,387.921732 167.450159,387.681037 C167.690292,387.440341 167.824797,387.113997 167.824,386.774 C167.824531,386.434177 167.689909,386.108089 167.449805,385.86761 C167.2097,385.627131 166.883824,385.492 166.544,385.492 L165.084,385.492 L165.084,384.565 C165.084553,383.149722 163.938277,382.001656 162.523,382 L153.561,382 L153.56,382 Z M183.144,392.099 L178.59,406.435 L154.99,406.435 L159.547,392.099 L183.144,392.099 Z" id="Shape" fill="#25455E" fill-rule="nonzero"></path>
            <path d="M173.177,749.673 C175.976844,746.907672 179.755761,745.360379 183.691,745.368 C184.412284,745.368 184.997,744.783284 184.997,744.062 C184.997,743.340716 184.412284,742.756 183.691,742.756 C178.203633,742.745598 173.02803,745.305458 169.706,749.673 L173.177,749.673 L173.177,749.673 Z M169.706,749.673 C167.771,752.151 166.375,756.665 166.252,759.106 L164.6,757.458 C164.088714,756.948157 163.261286,756.948157 162.75,757.458 C162.504635,757.702492 162.366717,758.034619 162.366717,758.381 C162.366717,758.727381 162.504635,759.059508 162.75,759.304 L166.72,763.266 C166.964914,763.512099 167.2978,763.650457 167.645,763.650457 C167.9922,763.650457 168.325086,763.512099 168.57,763.266 L172.537,759.304 C172.782365,759.059508 172.920283,758.727381 172.920283,758.381 C172.920283,758.034619 172.782365,757.702492 172.537,757.458 C172.025827,756.946941 171.197173,756.946941 170.686,757.458 L168.864,759.278 C168.986,756.721 170.238,752.286 173.177,749.673 L169.706,749.673 L169.706,749.673 Z M183.6,31.913 L183.6,25.238 L183.598,25.224 C183.597327,25.177682 183.592643,25.1315094 183.584,25.086 L183.577,25.062 C183.568588,25.0255861 183.557559,24.9898266 183.544,24.955 L183.526,24.914 C183.512264,24.8843196 183.496563,24.8555891 183.479,24.828 L183.457,24.794 C183.431994,24.7576409 183.403889,24.7235137 183.373,24.692 L173.2,14.482 L173.198,14.481 L173.188,14.471 C173.158476,14.4427969 173.126705,14.4170451 173.093,14.394 L173.056,14.371 C173.028826,14.3545073 173.000785,14.3394857 172.972,14.326 L172.93,14.307 C172.89199,14.2919919 172.852872,14.2799558 172.813,14.271 L172.795,14.267 C172.750475,14.2585366 172.705314,14.2538533 172.66,14.253 L172.643,14.251 L150.246,14.251 C150.038785,14.2499367 149.839664,14.3313708 149.692577,14.4773319 C149.54549,14.623293 149.462529,14.821783 149.462,15.029 L149.462,31.913 L147,31.913 L147,49.173 L149.463,49.173 L149.463,57.011 C149.463,57.441 149.813,57.788 150.247,57.788 L182.816,57.788 C183.022869,57.7887972 183.221582,57.7073824 183.368424,57.5616663 C183.515265,57.4159502 183.598206,57.2178693 183.599,57.011 L183.599,49.172 L185.979,49.172 L185.979,31.913 L183.599,31.913 L183.6,31.913 Z M173.427,16.923 L180.937,24.461 L173.427,24.461 L173.427,16.923 Z M151.031,15.807 L171.859,15.807 L171.859,25.238 C171.859,25.668 172.21,26.016 172.643,26.016 L182.031,26.016 L182.031,31.913 L151.031,31.913 L151.031,15.807 Z M176.115,44.885 L174.292,44.885 L174.17,41.753 C174.124896,40.6325472 174.100558,39.5113547 174.097,38.39 L174.06,38.39 C173.803,39.435 173.46,40.6 173.142,41.559 L172.138,44.751 L170.682,44.751 L169.802,41.583 C169.505824,40.5302577 169.256578,39.4648734 169.055,38.39 L169.03,38.39 C168.981,39.495 168.945,40.758 168.883,41.777 L168.737,44.885 L167.011,44.885 L167.537,36.703 L170.021,36.703 L170.829,39.435 C171.086,40.382 171.343,41.401 171.526,42.36 L171.563,42.36 C171.795,41.413 172.077,40.333 172.346,39.422 L173.227,36.703 L175.662,36.703 L176.115,44.885 L176.115,44.885 Z M159.303,38.257 L159.303,36.703 L165.642,36.703 L165.642,38.257 L163.39,38.257 L163.39,44.885 L161.518,44.885 L161.518,38.257 L159.303,38.257 L159.303,38.257 Z M150.885,36.703 L152.757,36.703 L152.757,39.847 L155.829,39.847 L155.829,36.703 L157.689,36.703 L157.689,44.885 L155.829,44.885 L155.829,41.462 L152.757,41.462 L152.757,44.885 L150.885,44.885 L150.885,36.703 Z M182.031,56.233 L151.031,56.233 L151.031,49.172 L182.031,49.172 L182.031,56.233 Z M183.309,44.885 L178.158,44.885 L178.158,36.703 L180.03,36.703 L180.03,43.331 L183.31,43.331 L183.31,44.885 L183.309,44.885 Z" id="Shape" fill="#FFFFFF" fill-rule="nonzero"></path>
            <path d="M164.532,560.064 C153.798,560.064 145.064,568.797 145.064,579.532 C145.064,590.267 153.798,599 164.532,599 C175.267,599 184,590.267 184,579.532 C184,568.797 175.267,560.064 164.532,560.064 L164.532,560.064 Z M164.532,561.652 C165.752,561.652 166.945,561.776 168.097,562.01 L156.25,573.856 L156.25,563.693 C158.803875,562.349977 161.646523,561.649441 164.532,561.652 L164.532,561.652 Z M161.102,571.25 L167.962,571.25 L172.814,576.101 L172.814,582.962 L167.963,587.813 L161.102,587.813 L156.25,582.963 L156.25,576.1 L161.102,571.25 L161.102,571.25 Z M154.662,564.632 L154.662,581.374 L147.479,574.192 L147.47,574.184 C148.705772,570.27191 151.243885,566.900936 154.662,564.632 L154.662,564.632 Z M148.694,587.814 C147.350819,585.260142 146.64995,582.417536 146.652,579.532 C146.652,578.312 146.776,577.12 147.01,575.967 L154.895,583.852 L154.895,583.853 L158.856,587.813 L148.698,587.813 L148.694,587.814 L148.694,587.814 Z M159.184,596.594 C155.271762,595.35797 151.900767,592.819489 149.632,589.401 L166.375,589.401 L159.192,596.585 L159.184,596.595 L159.184,596.594 Z M164.532,597.412 C163.312,597.412 162.12,597.288 160.968,597.054 L172.814,585.208 L172.814,595.371 C170.260068,596.713871 167.417458,597.414398 164.532,597.412 L164.532,597.412 Z M174.402,594.432 L174.402,577.689 L181.585,584.873 L181.595,584.88 C180.358768,588.791869 177.820308,592.162485 174.402,594.431 L174.402,594.432 Z M180.371,571.25 C181.713833,573.803946 182.414358,576.646547 182.412,579.532 C182.412,580.752 182.288,581.944 182.054,583.096 L174.171,575.213 L174.168,575.21 L170.208,571.25 L180.371,571.25 Z M162.689,569.662 L169.873,562.479 L169.88,562.469 C173.792238,563.70503 177.163233,566.243511 179.432,569.662 L162.689,569.662 Z" id="Shape" fill="#25455E" fill-rule="nonzero"></path>
        </g>
    </g>
</svg>
